<svg width="573" height="239" viewBox="0 0 573 239" fill="none" xmlns="http://www.w3.org/2000/svg">
<path d="M1.84647 210.218C2.94347 210.381 4.06239 210.13 4.98178 209.515C5.90117 208.899 6.55404 207.964 6.81112 206.894C7.30595 205.705 7.94291 204.578 8.70841 203.539C9.49895 202.505 8.3922 202.285 7.98112 201.784C6.96922 200.561 5.38811 200.843 3.96513 200.624C3.55405 200.624 3.23784 200.091 2.89 199.808C3.08994 199.624 3.31312 199.466 3.55403 199.338C5.13512 198.742 6.71622 198.241 8.29731 197.614C10.9219 196.516 11.2698 193.914 12.8193 192.095C13.4833 191.312 12.503 190.214 11.7441 189.368C11.5912 189.245 11.4719 189.086 11.3973 188.906C11.3227 188.725 11.2952 188.529 11.3172 188.336C11.3393 188.142 11.4103 187.957 11.5236 187.797C11.6369 187.638 11.7888 187.51 11.9655 187.424C13.3549 186.775 14.4731 185.666 15.1276 184.288C16.7612 181.988 19.2129 180.386 21.9896 179.805C27.5234 178.551 32.5829 175.854 38.5594 175.917C39.6456 175.721 40.7062 175.406 41.7216 174.977C44.3793 174.005 47.154 173.383 49.9749 173.127C53.1371 173.127 55.4771 171.245 58.4179 171.465C61.3588 171.684 63.6672 169.302 66.7345 169.584C67.2721 169.584 67.8412 168.173 67.5882 167.703C67.3353 167.232 66.7977 166.95 66.2285 167.452C65.0585 168.486 64.0466 167.076 63.3509 167.232C62.0228 167.514 60.9477 168.424 59.3349 168.392C55.2241 168.392 51.0817 168.392 46.9392 168.392C46.3843 168.357 45.8392 168.23 45.3265 168.016C45.1051 168.016 44.8205 167.64 44.8205 167.452C44.8205 167.264 44.8205 166.198 45.1051 166.041C46.7817 165.033 48.622 164.323 50.5441 163.94C52.486 163.422 54.3797 162.74 56.2044 161.902C57.4693 161.589 57.2163 160.24 57.0266 159.237C56.9602 158.832 56.7532 158.464 56.4413 158.194C56.1294 157.925 55.7324 157.773 55.319 157.764C52.6628 157.764 50.0065 157.607 47.3503 157.764C44.6941 157.92 42.0378 159.582 38.9389 159.457C37.8321 159.457 36.6305 160.868 35.4605 161.62C35.2477 161.743 35.0102 161.818 34.7648 161.839C34.4594 161.44 34.2437 160.98 34.1324 160.491C34.1324 159.206 34.1324 157.795 36.1562 157.732C38.8124 157.732 40.7729 155.632 43.6821 155.945C46.5914 156.259 48.3622 154.189 51.2082 154.44C53.1687 154.597 53.9593 153.374 53.1055 151.995C52.4552 150.883 51.9554 149.692 51.6193 148.452C51.273 147.409 50.5651 146.522 49.6214 145.948C48.6777 145.374 47.5592 145.15 46.4649 145.316C46.5652 145.796 46.5394 146.293 46.3899 146.76C46.2403 147.226 45.9721 147.647 45.6111 147.981C45.2945 147.604 45.0386 147.181 44.8522 146.727C44.7725 146.271 44.7725 145.804 44.8522 145.348H44.6624C44.6746 145.296 44.6746 145.242 44.6624 145.191C43.99 145.055 43.2941 145.087 42.6373 145.284C41.9805 145.481 41.3833 145.837 40.8995 146.32C40.267 147.135 39.8559 148.075 39.2867 148.922C39.1304 149.148 38.9285 149.339 38.6936 149.483C38.4588 149.628 38.1962 149.722 37.9226 149.761C37.649 149.799 37.3703 149.78 37.1043 149.706C36.8383 149.632 36.5908 149.504 36.3775 149.329C35.6038 148.61 34.8851 147.834 34.2272 147.009C32.8043 145.16 31.571 144.689 28.5353 145.316C26.7645 145.661 26.9858 147.041 26.9226 148.201C26.1324 148.114 25.3861 147.796 24.7781 147.288C24.1702 146.78 23.7279 146.105 23.5075 145.348C23.3396 144.719 23.3419 144.058 23.514 143.43C23.6861 142.803 24.0219 142.231 24.4877 141.773C25.3731 140.77 25.9739 139.579 26.7961 138.638C27.1362 138.273 27.5955 138.04 28.0926 137.98C30.3061 139.704 32.077 137.76 33.4367 137.102C35.5119 135.65 37.8375 134.587 40.2986 133.966C41.5635 133.81 41.0576 132.273 41.2789 131.333C43.4722 129.844 45.7767 128.523 48.1724 127.382C48.6914 127.28 49.1583 127.002 49.493 126.596C49.8277 126.19 50.0093 125.681 50.0065 125.156L46.5597 123.745C46.5597 123.965 46.5598 124.215 46.3384 124.278C43.1663 125.249 40.0609 126.422 37.0416 127.79C36.5356 128.103 35.7135 127.131 35.9348 126.316C36.1542 124.762 36.7451 123.283 37.6582 122.001C38.5713 120.719 39.7802 119.673 41.184 118.948C47.9417 116.031 55.0529 113.997 62.3391 112.897C65.2042 112.747 68.0451 112.295 70.8137 111.549C73.6839 110.964 76.6284 110.827 79.5414 111.141C80.1085 111.197 80.6798 111.088 81.1856 110.828C83.1778 109.26 85.8657 110.326 87.8579 109.479C89.6096 108.481 91.637 108.064 93.6447 108.288C96.0163 108.884 97.6923 106.752 99.969 107.598C100.918 107.912 102.53 107.034 103.732 106.501C104.934 105.968 104.649 104.745 104.776 103.773C104.902 102.801 105.787 102.049 107.116 102.049L119.48 101.861C120.918 101.994 122.369 101.845 123.749 101.422C125.628 100.65 127.672 100.359 129.694 100.575C135.291 100.575 140.919 100.136 146.485 100.575C152.05 101.014 157.869 98.5684 163.75 98.976C164.035 98.976 164.383 98.4117 164.699 98.0981C164.478 98.0981 164.225 97.6906 164.003 97.6592C162.517 97.6592 161.062 97.6592 159.608 97.6592C147.844 97.6592 136.05 97.6592 124.286 97.6592C120.27 97.6592 116.128 96.9067 112.207 98.7879C111.384 99.1955 109.614 97.8787 108.254 97.8473C106.894 97.816 105.25 99.1015 103.321 99.0388C96.5539 99.0388 89.7868 99.0388 82.9881 99.0388C82.3177 99.0854 81.6498 98.9191 81.0812 98.5639C80.5126 98.2087 80.0729 97.6832 79.8259 97.0635C79.0986 95.9348 77.0748 95.4645 75.6202 94.712C73.8178 96.7186 71.8888 93.646 70.2761 94.712C67.6515 96.4992 64.6791 95.8094 61.8015 95.9975C59.205 95.6814 56.5706 96.0715 54.1806 97.1262C53.0985 97.5195 51.9108 97.5195 50.8287 97.1262C49.1675 96.7728 47.6032 96.0668 46.2435 95.0569C45.8596 94.5542 45.3777 94.1332 44.8263 93.8189C44.275 93.5046 43.6655 93.3035 43.0342 93.2274C42.4029 93.1514 41.7626 93.2019 41.1514 93.3762C40.5402 93.5504 39.9706 93.8448 39.4764 94.2417C38.9465 94.3814 38.3937 94.4144 37.8506 94.339C37.3075 94.2637 36.7852 94.0813 36.3143 93.8027C35.1077 93.1035 33.7268 92.7557 32.3299 92.7994C32.292 92.4303 32.1206 92.0873 31.8474 91.8337C31.5742 91.5801 31.2177 91.4331 30.8437 91.4199C26.0055 91.6393 21.0409 90.6047 16.3609 92.6741C15.2225 93.1757 14.3055 91.9842 13.5782 91.2317C12.8509 90.4793 12.9457 90.8869 12.8193 90.9496L13.1038 90.6674C14.3301 89.2598 15.7451 88.0256 17.3095 86.9991C18.3214 86.3721 19.365 87.438 20.4717 87.7516C22.9557 88.4266 25.577 88.4266 28.061 87.7516C28.4088 87.7516 28.5669 87.0932 28.7883 86.6856H31.3497C33.5948 86.6856 33.9743 86.2466 34.1324 84.6162C34.2905 82.9859 33.911 82.4215 31.9821 82.0766C31.4129 82.0766 30.7804 82.0766 30.2429 82.0766C29.7053 82.0766 28.6618 81.5435 28.9464 80.5402C29.0224 80.1448 29.2406 79.7901 29.5605 79.5422C29.8803 79.2942 30.2801 79.1698 30.6856 79.1921C32.706 79.3342 34.7362 79.1435 36.6937 78.6277C39.0999 77.6305 41.7241 77.2634 44.3146 77.5617C47.4768 77.7812 49.5955 75.5865 52.6944 75.9941C55.2839 76.4741 57.947 76.3993 60.505 75.7746C63.2096 74.9575 65.9822 74.3805 68.7899 74.0502C69.0745 74.0502 69.2326 73.3918 69.4223 72.9842H52.8525C51.1539 73.0183 49.4699 73.3036 47.8563 73.8307C44.2388 74.9069 40.3986 75.0151 36.7254 74.1442C35.4289 73.8621 34.3221 72.8901 32.741 73.0155C27.8713 73.329 22.8434 72.2003 18.1634 74.4264C17.0074 74.6809 15.8093 74.6809 14.6533 74.4264C14.1424 74.2551 13.654 74.0235 13.1987 73.7366C13.5816 73.416 13.9945 73.1326 14.4319 72.8901C18.7049 71.3553 23.139 70.3035 27.6499 69.7548C29.6737 69.4413 31.7607 69.7547 33.8162 69.5666C34.6364 69.4274 35.4208 69.1291 36.1245 68.6887C36.584 68.4057 36.9304 67.9736 37.1048 67.466C37.1048 67.3092 36.4408 66.7762 36.0297 66.7135C34.5751 66.5567 33.1204 66.5567 31.6658 66.4626C31.3979 66.3668 31.1662 66.1916 31.0018 65.961C31.0018 65.961 31.1915 65.6161 31.3497 65.5221C32.8359 64.6755 34.67 65.1771 36.251 64.1738C39.1859 62.3383 42.678 61.5837 46.117 62.0418C51.4928 62.7316 56.2993 60.4115 61.4537 60.2234C61.7066 60.2234 61.928 59.9098 62.1493 59.7531C62.3707 59.5963 61.8647 59.3455 61.6434 59.2514C61.1283 59.0503 60.5835 58.9337 60.0306 58.9065C53.7063 59.3141 47.1605 57.6524 41.0575 60.3488H32.3299C32.2304 59.8724 31.9544 59.4502 31.5563 59.1658C31.1582 58.8813 30.667 58.7552 30.1797 58.8124C29.1678 58.8124 28.1559 58.8124 27.0175 58.8124C27.0471 58.476 27.1973 58.1613 27.441 57.9254C27.6847 57.6896 28.0057 57.5481 28.3456 57.5269C30.2113 57.3701 32.1086 57.3702 34.0059 57.3075C34.5434 56.461 35.587 55.2382 35.334 54.956C34.0691 53.6392 34.2588 52.1341 33.8478 50.6605C33.5723 50.379 33.2348 50.1645 32.8617 50.034C32.4887 49.9034 32.0902 49.8603 31.6975 49.9081C30.201 50.7654 28.4918 51.1891 26.7645 51.1309C21.9896 50.692 17.7839 52.824 13.1987 53.2943C12.503 53.2943 11.9338 54.4544 11.08 53.2943C10.7006 52.7926 11.5544 51.6638 12.7244 51.0681C14.745 49.9685 17.0303 49.4373 19.3333 49.5318C21.6601 49.616 23.9896 49.4795 26.2901 49.1242C26.6873 49.0181 27.0554 48.8249 27.3673 48.559C27.6793 48.2932 27.9271 47.9614 28.0926 47.588C28.0926 47.149 27.6183 46.2711 27.0491 45.8635C25.9423 45.1423 24.6458 44.6721 23.5391 43.951C23.3177 43.951 23.539 42.6968 23.7604 42.6027C25.384 42.2201 26.9794 41.7277 28.5353 41.1291C32.0842 39.2564 36.1031 38.4399 40.1089 38.7776C41.2789 38.7776 42.4805 38.7776 43.6505 38.7776C45.211 38.9226 46.7847 38.7315 48.2638 38.2174C49.7429 37.7033 51.0924 36.8784 52.22 35.7991C54.8932 33.754 57.9769 32.3001 61.2639 31.535C63.1928 30.7825 65.8175 31.2528 66.5448 28.5878C66.7345 27.9294 68.4737 30.2809 69.1693 28.7446C71.5726 23.2891 77.4227 22.129 82.7035 20.4986C84.5692 19.9343 86.4981 19.6208 88.3954 18.9937C90.7143 18.6028 93.0763 18.529 95.4155 18.7742C97.1547 18.7742 98.7674 16.8617 100.665 18.4607L103.827 15.9524C105.123 17.0811 106.23 16.7049 107.527 15.9524C108.823 15.1999 110.025 14.5102 110.689 14.7924C112.807 15.9524 114.357 14.2593 116.191 14.3534C121.041 14.2099 125.817 13.1455 130.263 11.2181C131.022 10.9672 131.148 10.5283 130.769 10.2147C130.389 9.90121 130.294 9.74446 130.073 9.74446C126.554 9.47076 123.016 9.5443 119.511 9.96396C116.349 10.6224 113.377 11.124 110.373 11.9392C106.293 13.0679 101.803 13.2874 98.2931 15.827C97.446 16.0692 96.5471 16.0692 95.7001 15.827C95.2574 15.827 94.8779 15.294 94.4985 15.0118C96.5372 12.3946 99.3429 10.4671 102.53 9.49363C105.693 8.83521 108.855 8.45898 111.764 7.73785C114.866 6.95502 118.05 6.53414 121.251 6.48374C122.691 6.6231 124.145 6.46289 125.519 6.01341C127.401 5.24782 129.438 4.93621 131.464 5.10419C135.765 5.10419 140.16 5.54313 144.113 3.63058C145.267 3.36093 146.469 3.36093 147.623 3.63058C148.003 3.63058 148.319 4.16356 148.667 4.44574C148.445 4.44574 148.192 4.91607 148.003 4.91607C145.473 4.50848 143.702 6.17016 141.678 6.73452C141.362 6.73452 141.172 7.33026 140.951 7.6438C141.451 7.85773 141.969 8.02567 142.5 8.14546C143.365 8.3352 144.261 8.3352 145.125 8.14546C148.926 6.72798 153.006 6.20213 157.046 6.60913C158.754 6.60913 159.829 6.23288 159.924 4.5398C159.924 3.88138 160.651 3.72465 161.157 4.13224C161.702 4.56325 162.335 4.87079 163.013 5.03329C163.69 5.19578 164.395 5.20925 165.078 5.0728C165.078 4.32032 165.078 3.47381 165.363 2.9408C165.648 2.40779 166.754 2.21966 167.545 2.09425C168.43 2.04688 169.316 2.04688 170.201 2.09425C177.253 2.09425 184.304 1.84342 191.356 2.09425C193.38 2.09425 195.309 0.307115 196.953 1.46719C198.598 2.62726 200.59 0.275762 202.424 1.46719C204.318 2.22361 206.388 2.44077 208.4 2.09425C212.227 2.09425 216.053 2.09424 219.879 2.28236C221.01 2.18074 222.15 2.35289 223.199 2.78402C224.433 3.59921 225.065 3.00349 226.109 2.62725C227.152 2.25101 227.879 3.91274 229.018 2.87808C230.156 1.84342 231.358 4.10086 232.781 2.87808C234.204 1.6553 236.164 2.37643 237.872 2.25102C239.579 2.12561 240.813 2.25102 242.267 2.25102H253.714C255.169 2.25102 256.877 2.5959 258.015 2.00019C261.019 0.181696 264.339 0.934174 267.502 0.871467C270.664 0.80876 274.49 1.09093 278 1.24769C279.391 3.00348 281.889 0.0562919 283.218 2.15697C285.243 2.3913 287.285 2.45422 289.321 2.34508C291.597 2.09425 293.052 3.66194 295.107 3.78735C298.321 3.52518 301.555 3.94194 304.594 5.01013C307.219 6.26426 310.918 4.69658 313.669 6.85996C317.179 6.85996 320.658 6.85998 324.136 6.5778C324.389 6.5778 324.611 5.95069 324.863 5.51175H326.571C326.625 5.25295 326.736 5.00923 326.896 4.7981C327.056 4.58696 327.262 4.41368 327.498 4.29074C327.734 4.1678 327.994 4.09822 328.26 4.08708C328.527 4.07593 328.792 4.1235 329.038 4.2263C329.599 4.55027 330.229 4.73892 330.877 4.77705C331.525 4.81517 332.173 4.70167 332.769 4.44574C334.065 3.94409 335.362 2.37644 337.228 3.28569C339.093 4.19493 340.39 2.50183 341.844 2.28236C345.481 1.81206 348.865 -0.131849 352.596 2.28236C353.355 2.78401 354.873 2.28235 356.043 2.47047C358.699 2.47047 361.355 2.47051 363.98 2.65863C364.368 2.64508 364.748 2.7708 365.05 3.0127C365.352 3.25461 365.556 3.59647 365.624 3.97546C366.456 4.02249 367.29 4.02249 368.122 3.97546C370.951 4.01847 373.756 4.49436 376.439 5.38635C378.306 5.82975 380.061 6.65175 381.593 7.80057C382.409 8.38006 383.388 8.69167 384.392 8.69167C385.395 8.69167 386.374 8.38006 387.19 7.80057C389.087 6.60915 390.542 7.51839 390.352 9.4623C390.305 10.2245 390.305 10.9889 390.352 11.7511C390.392 12.1502 390.585 12.5188 390.891 12.7813C391.197 13.0437 391.593 13.18 391.997 13.162C393.451 13.162 394.906 13.162 396.361 13.162C399.523 12.9732 402.697 13.0466 405.847 13.3815C408.828 14.1434 411.705 15.2593 414.417 16.7049C415.732 17.2065 417.086 17.6049 418.464 17.8964C421.964 18.8483 425.388 20.0534 428.71 21.502C430.563 22.1785 432.521 22.5287 434.496 22.5366C434.565 22.9038 434.754 23.2382 435.035 23.4877C435.315 23.7372 435.67 23.8879 436.046 23.9162C436.868 24.073 437.785 23.9162 438.639 24.1356C438.892 24.1356 439.082 24.4492 439.303 24.606C439.018 24.9195 438.765 25.3584 438.354 25.4839C437.943 25.6093 437.184 25.4839 436.615 25.4839C436.084 25.6036 435.566 25.7715 435.066 25.9855C435.287 26.299 435.413 26.7693 435.73 26.8947C438.303 28.1202 441.129 28.7322 443.983 28.6819C444.204 28.6819 444.457 28.964 444.679 29.1208C444.362 29.4343 444.141 29.9047 443.762 29.9987C441.011 30.5944 437.153 28.3683 435.761 32.4756C435.761 32.7578 434.781 32.9146 434.212 32.9773C433.338 33.0402 432.461 33.0402 431.587 32.9773C427.002 32.6951 422.101 33.9493 417.8 32.0053C417.452 32.0053 416.472 32.7578 415.808 33.2281C415.144 33.6984 415.144 34.2001 415.808 34.2941C418.383 34.3019 420.946 34.6499 423.429 35.3288C425.937 35.983 428.52 36.3098 431.113 36.3007C431.967 36.4889 432.536 36.8651 432.599 37.6489C425.421 37.4294 418.211 38.5582 411.065 36.4575C406.859 35.2034 402.527 37.1159 398.416 37.9311C396.93 38.2133 398.068 39.0285 398.416 39.5301C398.764 40.0318 399.776 40.5648 400.187 41.2232C400.946 42.446 399.681 42.2579 398.953 42.3519C398.226 42.446 397.942 42.3519 397.436 42.3519C397.657 42.7595 397.847 43.3552 398.1 43.3866C400.105 43.8018 402.159 43.939 404.203 43.7942C406.29 43.4493 407.713 45.6127 409.737 44.578C410.875 43.9823 411.286 44.4213 411.286 45.3305C411.267 45.5754 411.188 45.812 411.056 46.0197C410.924 46.2274 410.742 46.3998 410.527 46.522C409.452 46.8041 408.282 46.8668 407.144 47.0863C406.881 47.1759 406.657 47.3532 406.511 47.588C406.511 47.588 406.732 48.0269 406.891 48.0269C408.314 48.2463 409.737 48.3404 411.16 48.5599C411.685 48.6398 412.19 48.8208 412.646 49.0929C412.456 49.908 411.665 49.9707 410.843 49.9707C407.302 49.9707 403.76 49.9708 400.25 50.1276C399.997 50.1276 399.776 50.4097 399.554 50.5665C399.87 50.88 400.155 51.4131 400.471 51.4131C403.95 51.4131 406.796 53.3883 410.622 53.1375C416.472 52.6985 422.417 53.1375 428.298 53.1375C429.089 53.1375 430.575 53.5764 430.575 53.7959C430.575 56.3982 433.358 56.0847 434.876 56.9312C436.394 57.7777 438.86 57.4015 440.852 57.5583C442.339 57.5583 443.825 57.5583 445.28 57.5583C446.734 57.5583 447.651 57.5583 448.821 57.5583C449.232 57.5583 449.58 58.0286 449.959 58.3107L448.884 59.5022C448.318 59.9513 447.66 60.2736 446.956 60.4468C446.251 60.62 445.518 60.64 444.805 60.5055C430.67 60.5055 416.535 60.5055 402.369 60.5055C397.258 60.7257 392.231 61.8734 387.538 63.8916C387.309 64.034 387.105 64.2143 386.937 64.4247C387.145 64.6091 387.367 64.7769 387.601 64.9263C387.856 65.0284 388.121 65.102 388.392 65.1458C389.246 65.1458 390.131 65.1458 390.953 65.3966C391.21 65.5127 391.446 65.6718 391.649 65.8669C391.491 66.055 391.333 66.3372 391.143 66.3686C389.719 66.5781 388.282 66.6934 386.842 66.7135C384.66 66.7135 385.261 68.5947 384.249 69.3158C384.028 69.3158 383.332 69.0336 382.826 68.8768C382.32 68.72 381.561 68.2185 381.309 68.3752C378.413 69.6961 375.215 70.2265 372.043 69.9115C371.759 69.9115 371.506 70.4758 371.221 70.758C371.442 70.9148 371.695 71.197 371.917 71.197C373.956 70.9532 376.022 71.0699 378.02 71.5419C380.659 72.741 383.58 73.1966 386.463 72.8587C390.495 72.9032 394.496 73.5696 398.321 74.834C399.704 75.1607 401.066 75.569 402.4 76.0567C404.482 77.0194 406.74 77.5469 409.036 77.6062C411.332 77.6656 413.616 77.2555 415.745 76.4017C416.569 76.1276 417.438 76.0105 418.306 76.0567C421.244 75.8844 424.19 75.8844 427.129 76.0567C430.291 76.3389 432.694 74.6458 435.572 74.5831C439.682 74.5831 443.825 74.5831 447.936 74.5831C448.656 74.6939 449.351 74.9273 449.991 75.2729C449.51 75.5379 448.985 75.7182 448.442 75.806C444.9 75.806 441.358 75.806 437.817 76.0255C437.374 76.0255 436.963 76.5271 436.52 76.7779C436.742 76.966 436.931 77.2169 437.184 77.2796C439.55 78.2957 442.074 78.9002 444.647 79.0666C446.933 79.0548 449.207 79.4041 451.383 80.1013C454.379 81.0583 457.478 81.6684 460.616 81.9198C466.213 81.9198 471.336 84.4281 476.996 83.7696C479.615 85.0034 482.519 85.5229 485.408 85.2746C486.582 85.3428 487.698 85.8075 488.57 86.5915C489.424 87.1872 490.309 87.7202 491.194 88.2845C491.479 90.1971 493.977 89.6955 495.021 90.8869C496.064 92.0783 496.127 92.2038 495.4 93.3638C494.673 94.5239 495.052 95.8407 496.76 95.9975C498.467 96.1543 499.669 96.1856 501.092 96.4364C501.377 96.4364 501.535 97.0635 501.756 97.4711C498.593 97.778 495.402 97.662 492.27 97.1262C489.04 96.2926 485.871 95.2452 482.783 93.9909C480.298 92.6752 477.561 91.8953 474.751 91.7021C470.545 91.7021 466.94 89.9776 462.861 89.6955C458.726 89.2741 454.683 88.2163 450.877 86.5601C447.872 87.0931 445.058 84.7103 441.896 86.278C440.763 86.6237 439.551 86.6237 438.418 86.278C436.868 85.9644 435.445 84.8984 433.832 86.0271C431.872 84.3653 430.164 85.2747 428.33 86.278C427.78 86.4044 427.202 86.3144 426.717 86.0271C423.555 84.2399 419.887 85.2746 416.472 85.2432C415.555 85.2432 415.555 85.6822 416.156 86.278C416.757 86.8737 417.263 87.5635 415.966 87.877C414.669 88.1905 412.393 87.438 411.855 89.476C411.167 89.6087 410.458 89.5934 409.776 89.4311C409.094 89.2688 408.455 88.9634 407.902 88.5354C407.428 88.1278 406.859 88.2845 406.701 88.9743C406.623 89.214 406.608 89.4696 406.658 89.7166C406.708 89.9636 406.82 90.1938 406.985 90.3852C407.618 90.8242 408.63 90.8869 409.262 91.3572C412.962 94.179 412.962 94.2417 414.417 94.2104L425.927 94.0536C427.445 94.0536 427.919 93.1757 427.824 92.047C427.729 90.9182 428.235 89.57 430.164 89.57H439.018C439.24 89.57 439.682 89.9776 439.651 90.0403C439.619 90.103 439.208 90.9183 438.955 90.9183L430.986 91.2005C430.67 91.2005 430.322 91.7335 430.101 92.0783C429.88 92.4232 430.354 92.5172 430.544 92.7054C431.253 93.5938 432.287 94.1685 433.421 94.3044C433.738 94.3044 434.085 94.8061 434.402 95.0882C434.18 95.245 433.927 95.5271 433.674 95.5271C432.213 95.6681 430.741 95.6681 429.279 95.5271C426.781 95.2763 425.263 97.5024 422.67 97.2202C420.329 96.9224 417.959 96.9224 415.618 97.2202C413.978 97.6062 412.387 98.1742 410.875 98.9133C410.685 98.9133 410.401 99.3209 410.432 99.3836C410.583 99.6208 410.821 99.7898 411.096 99.8539C414.828 100.167 418.116 102.017 422.101 101.672C426.085 101.328 430.354 101.672 434.465 101.672C435.951 101.672 437.785 101.233 438.829 101.829C442.37 103.836 446.26 102.864 449.959 103.24C451.129 103.24 452.711 102.989 453.375 103.554C455.999 105.686 459.699 104.087 462.482 105.842C464.759 107.222 468.11 105.842 470.925 107.222C473.739 108.602 477.249 107.63 480.411 107.974C481.253 108.072 482.069 108.328 482.815 108.727C484.459 109.668 486.261 109.166 487.969 109.385C489.677 109.605 490.72 111.267 492.775 111.016C496.204 110.824 499.61 111.666 502.547 113.43C504.932 114.879 507.537 115.938 510.262 116.565C513.279 117.355 516.342 117.962 519.433 118.384C522.255 118.757 525.052 119.291 527.812 119.983C530.154 120.265 532.522 120.265 534.864 119.983C537.773 119.544 539.734 121.77 542.422 121.519C546.058 121.206 549.126 123.024 552.572 123.526C552.889 123.526 553.142 124.278 553.3 124.717C553.458 125.156 552.699 126.191 551.687 126.034C550.675 125.877 549.315 125.062 548.525 125.407C547.165 126.065 546.533 125.407 545.552 124.999C545.184 124.771 544.752 124.666 544.319 124.7C543.887 124.734 543.476 124.905 543.149 125.187C542.295 126.003 541.157 126.598 539.987 125.877C538.201 124.881 536.137 124.485 534.105 124.748C533.599 124.748 532.651 125.156 532.651 125.313C532.651 126.159 533.694 126.159 534.453 126.316C534.699 126.406 534.909 126.57 535.054 126.786C534.801 127.131 534.485 127.664 534.137 127.696C532.682 127.696 531.196 127.696 529.741 127.853C529.52 127.853 529.077 128.229 529.109 128.323C529.141 128.417 529.678 129.295 529.805 129.263C532.461 128.48 534.01 130.956 536.414 130.862C540.018 130.862 543.623 130.612 544.825 134.688C544.825 135.158 546.28 135.346 547.007 135.722C549.979 137.258 552.952 138.858 555.861 140.394C557.189 141.146 555.861 141.773 555.418 142.087C554.468 142.627 553.473 143.089 552.446 143.466C551.813 143.749 551.877 144.093 552.446 144.626C552.931 145.143 553.518 145.555 554.171 145.836C554.824 146.116 555.529 146.26 556.241 146.257C559.213 146.257 559.181 146.257 560.509 148.42C560.988 149.075 561.54 149.675 562.154 150.207C562.502 150.584 562.944 150.96 563.292 151.367C563.348 151.541 563.348 151.727 563.292 151.9C562.786 152.089 562.091 152.465 561.711 152.277C560.99 151.958 560.208 151.793 559.419 151.793C558.629 151.793 557.847 151.958 557.126 152.277C552.857 153.594 557.664 154.848 556.936 156.29C556.209 157.732 556.399 158.265 554.375 158.673C554.09 158.673 553.774 158.673 553.489 158.673L551.908 159.206C552.225 159.488 552.509 159.99 552.857 160.052C554.289 160.073 555.701 160.393 556.999 160.993C558.02 161.518 559.154 161.792 560.304 161.792C561.454 161.792 562.587 161.518 563.608 160.993C564.336 160.679 565.284 160.052 565.443 161.15C565.695 163.188 568.13 163.846 568.763 165.508C568.959 165.975 569.061 166.476 569.061 166.981C569.061 167.487 568.959 167.988 568.763 168.455C568.162 169.584 566.929 169.208 565.79 168.706C564.794 168.244 563.724 167.958 562.628 167.859C560.604 167.859 560.573 166.48 560.004 165.351C559.845 165.038 559.213 164.881 558.739 164.661C558.075 162.592 556.146 163.219 554.565 163.344C553.711 163.344 553.711 163.815 554.09 164.348C554.567 164.926 554.883 165.618 555.007 166.354C555.007 167.232 554.185 167.514 553.363 167.828C552.541 168.142 551.149 168.079 552.604 169.113C553.575 169.635 554.578 170.096 555.608 170.493C556.588 170.995 557.316 172.719 556.778 173.064C556.084 173.464 555.324 173.74 554.533 173.879C551.655 174.444 551.371 174.538 551.371 176.607C551.276 177.356 551.276 178.115 551.371 178.864C551.371 179.303 552.098 180.056 552.319 180.024C556.177 179.335 556.746 182.595 558.644 184.069C558.723 184.179 558.827 184.269 558.948 184.331C559.069 184.392 559.203 184.425 559.339 184.425C559.476 184.425 559.61 184.392 559.731 184.331C559.852 184.269 559.956 184.179 560.035 184.069C561.268 182.564 562.09 185.48 563.482 184.257C564.873 183.034 565.664 184.916 566.644 185.354C567.624 185.793 568.099 186.076 568.794 186.421C569.111 187.612 570.375 187.675 571.292 188.176C572.209 188.678 572.083 189.462 572.178 190.152C572.273 190.841 571.387 190.998 570.945 190.998C568.336 191.4 565.674 191.305 563.102 190.716C560.04 189.745 556.828 189.32 553.616 189.462C551.879 189.591 550.139 189.244 548.588 188.458C548.588 188.458 547.987 188.458 547.956 188.678C547.924 188.897 547.513 189.713 547.734 190.089C548.119 190.813 548.672 191.436 549.347 191.907C550.802 192.911 550.485 193.726 549.568 195.043C548.651 196.359 549.568 196.987 551.023 197.3C551.549 197.487 552.048 197.74 552.509 198.053C552.087 198.375 551.603 198.61 551.086 198.742C549.347 198.93 547.703 198.742 547.386 201.031C547.386 202.034 545.426 202.85 544.477 203.822C543.529 204.794 542.706 204.198 541.568 203.822C538.871 202.994 536.111 202.386 533.315 202.003C532.208 201.846 529.077 201.094 531.069 204.041C531.069 204.041 530.5 204.825 530.121 204.856C528.951 204.856 527.781 204.856 526.579 204.856C526.073 204.856 525.156 205.201 525.156 205.421C525.156 206.33 526.073 206.236 526.801 206.487C527.528 206.737 527.718 207.678 526.801 207.803C525.884 207.929 524.239 208.399 523.986 209.308C523.164 212.256 520.033 212.695 517.662 214.043C516.966 214.482 516.176 214.764 515.448 215.171C514.721 215.579 514.658 216.3 516.397 217.429C518.136 218.558 516.397 218.401 515.796 218.683C515.195 218.965 513.741 218.683 514.784 220.031C515.353 220.69 515.606 221.254 514.784 221.944C514.044 222.633 513.119 223.094 512.12 223.272C511.121 223.45 510.091 223.337 509.156 222.947C508.112 222.54 507.29 221.724 506.658 223.417C506.174 224.364 505.456 225.173 504.57 225.769C501.408 228.214 501.408 228.183 503.559 230.629C503.938 231.036 504.349 231.381 504.697 231.789C504.834 232.017 504.909 232.277 504.914 232.543C504.92 232.808 504.856 233.071 504.728 233.305C504.601 233.538 504.414 233.735 504.187 233.876C503.96 234.017 503.7 234.097 503.432 234.109C501.724 234.109 499.701 234.736 498.341 233.67C496.444 232.196 494.863 234.893 493.661 233.921C491.036 231.726 487.336 233.262 484.554 231.569C483.068 230.691 480.569 231.224 478.546 230.974C476.522 230.723 475.067 229.218 472.79 229.469C470.514 229.719 468.553 229.124 466.624 229.469C464.695 229.813 462.513 227.87 460.3 228.873C459.699 229.155 459.383 229.061 459.067 228.403C458.75 227.744 458.403 226.71 457.802 226.521C456.474 226.145 454.893 226.521 453.659 225.581C452.426 224.64 450.244 225.111 448.568 224.734C446.892 224.358 445.975 223.7 444.584 223.386C443.488 223.19 442.358 223.414 441.422 224.013C440.454 224.65 439.329 225.01 438.168 225.054C437.008 225.098 435.858 224.825 434.844 224.264C432.789 222.916 430.101 223.982 428.33 222.257C427.413 221.317 426.148 221.881 425.168 222.571C424.188 223.261 423.966 223.135 423.871 222.571C423.207 218.683 419.824 218.558 416.535 218.714C414.29 218.714 412.804 217.335 410.748 217.241C408.693 217.147 406.037 217.241 403.697 217.241C402.622 217.241 402.116 215.485 400.756 216.363C399.932 216.952 398.942 217.269 397.926 217.269C396.91 217.269 395.92 216.952 395.096 216.363C394.647 216.007 394.089 215.813 393.514 215.813C392.94 215.813 392.382 216.007 391.933 216.363C390.695 217.145 389.201 217.426 387.759 217.147C386.656 217.147 385.57 216.878 384.597 216.363C383.206 215.454 382.257 217.805 380.834 216.363C379.411 214.921 379 217.115 377.925 217.084C377.609 217.084 377.198 217.084 377.04 217.084C374.952 215.234 371.79 216.363 369.703 215.266C366.963 214.27 364.048 213.833 361.134 213.98C360.858 213.913 360.607 213.772 360.407 213.572C358.098 211.848 355.347 212.695 352.786 212.601C350.161 214.45 346.777 214.137 343.773 214.921C334.034 217.554 327.962 219.31 321.037 218.714C319.266 218.558 317.496 218.714 315.725 218.714C314.319 218.892 312.933 219.197 311.582 219.624C306.776 220.345 302.096 222.351 297.131 221.818C294.773 221.662 292.406 221.662 290.048 221.818C287.442 221.649 284.831 222.045 282.395 222.979C280.116 223.498 277.766 223.647 275.439 223.417C274.591 223.49 273.771 223.747 273.035 224.17C270.853 225.393 268.324 224.358 266.173 225.016C264.023 225.675 261.493 226.96 259.09 227.838C258.208 227.949 257.316 227.949 256.434 227.838C255.268 227.726 254.092 227.811 252.955 228.089C250.742 229.155 248.94 230.347 247.738 227.086C247.358 226.051 245.493 226.302 244.576 226.584C242.747 227.41 240.767 227.858 238.757 227.901C235.597 227.75 232.494 228.779 230.061 230.785C228.354 232.008 226.899 233.231 224.844 231.475C221.301 232.584 217.561 232.937 213.871 232.51C211.859 232.341 209.85 232.861 208.179 233.983C205.649 233.388 203.562 236.021 201.855 235.3C200.147 234.579 198.534 235.551 197.459 234.924C195.435 233.733 194.518 235.896 192.779 235.614C191.04 235.332 188.637 235.614 186.455 235.614C184.743 235.643 183.071 236.13 181.617 237.025C179.688 237.934 177.474 235.583 176.178 236.398C174.881 237.213 173.015 234.924 171.719 236.617C171.466 236.931 169.853 236.178 168.968 236.304C167.845 236.509 166.772 236.924 165.806 237.526C164.225 238.592 163.371 238.561 163.086 236.648C162.962 236.412 162.782 236.209 162.562 236.057C162.342 235.904 162.088 235.806 161.821 235.771C158.912 235.771 155.718 234.861 153.189 236.21C151.386 237.182 149.267 234.893 148.034 237.056H141.71H134.627H101.866C100.115 237.15 98.3591 237.002 96.6487 236.617C94.4668 236.021 92.4746 234.861 90.3244 234.14C88.1741 233.419 86.1503 235.959 83.6521 235.457C83.0636 235.394 82.4699 235.394 81.8813 235.457C75.3672 235.457 68.8848 235.457 62.4023 235.457C61.836 235.388 61.2824 235.241 60.758 235.018C61.195 234.387 61.7044 233.808 62.2758 233.294C64.0466 231.977 67.1139 233.294 68.6002 231.099C68.6002 230.942 69.7702 231.099 70.2129 231.318C74.6399 233.639 79.4149 232.134 84.0316 232.228C85.2965 232.228 86.6246 231.193 87.8895 230.629C88.6168 230.315 88.5852 229.814 87.8895 229.625C85.6444 229.186 83.7154 226.866 81.3438 228.12C78.6377 229.201 75.7118 229.631 72.8059 229.374C70.1885 229.19 67.558 229.38 64.9953 229.939C62.4943 230.687 59.8915 231.047 57.2795 231.005C55.7933 231.005 54.3387 231.005 52.8841 231.224C51.9987 231.224 52.2517 231.695 52.3782 232.259C52.7576 233.952 52.0303 234.579 50.7022 233.795C49.254 232.871 47.5536 232.411 45.8325 232.479C43.1762 232.479 40.52 232.479 37.8637 232.479C36.9783 232.479 36.0929 232.479 35.2075 232.479C34.9545 232.479 34.7332 232.165 34.5118 232.04C34.8051 231.743 35.1224 231.47 35.4605 231.224C35.6819 231.224 36.0613 231.224 36.3459 231.224C37.1681 231.036 37.9586 230.785 38.7808 230.566C38.1167 229.813 37.6424 228.81 36.7886 228.34C35.3168 227.484 33.715 226.87 32.0453 226.521C29.7686 226.145 30.8121 222.916 27.9029 223.167C27.144 223.167 27.0491 222.539 27.7448 222.226C27.9974 222.104 28.2624 222.01 28.5353 221.944C30.5591 221.63 30.4326 220.282 30.401 218.997C30.3694 217.711 29.2942 217.303 28.0293 217.335C26.0046 217.512 23.976 217.039 22.2425 215.987C21.1686 215.609 19.9962 215.609 18.9222 215.987C17.5271 216.247 16.2087 216.815 15.0644 217.648C13.1671 219.341 11.9022 216.708 10.3844 217.335C8.86651 217.962 7.88625 219.247 6.49489 218.244C5.4924 217.435 4.76401 216.341 4.40783 215.109C4.14749 214.34 3.69476 213.649 3.09198 213.101C2.4892 212.552 1.75607 212.165 0.961066 211.973C0.328629 211.973 0.834575 210.124 1.84647 210.218ZM48.7417 54.956C49.1158 54.6492 49.5449 54.4152 50.0065 54.2662C49.5895 54.4289 49.2043 54.6623 48.8681 54.956H48.7417ZM62.6869 68.0617C65.8491 67.9049 69.3591 68.8455 72.3315 66.8389C72.5921 66.9262 72.8375 67.0531 73.0589 67.2151C72.8315 67.0543 72.5877 66.9178 72.3315 66.8076C69.4856 68.8455 66.0704 67.9049 62.8134 68.0617H62.6869ZM463.81 114.59C463.62 114.59 463.462 114.872 463.272 115.029C463.525 114.778 463.778 114.59 463.968 114.59H463.81ZM460.648 114.59C460.648 114.59 460.901 114.904 460.869 114.998C460.837 115.092 460.711 114.747 460.648 114.59C460.584 114.433 460.237 114.59 460.11 114.59C459.984 114.59 460.584 114.778 460.774 114.778L460.648 114.59Z" fill="url(#paint0_linear_60_3275)"/>
<defs>
<linearGradient id="paint0_linear_60_3275" x1="286.434" y1="0.769226" x2="286.434" y2="238.231" gradientUnits="userSpaceOnUse">
<stop stop-color="white" stop-opacity="0.8"/>
<stop offset="1" stop-color="white" stop-opacity="0.3"/>
</linearGradient>
</defs>
</svg>
