<svg width="60" height="60" viewBox="0 0 60 60" fill="none" xmlns="http://www.w3.org/2000/svg">
<circle cx="30" cy="30" r="30" fill="#E50E78"/>
<path d="M19.5 21.591C19.5 21.0788 19.912 20.6667 20.4242 20.6667H22.1764C23.0236 20.6667 23.7745 21.1597 24.1249 21.899H39.9522C40.965 21.899 41.7044 22.8618 41.4386 23.8399L39.8598 29.7048C39.5324 30.914 38.4349 31.7574 37.1834 31.7574H26.0735L26.2815 32.8549C26.3662 33.29 26.7474 33.6058 27.1903 33.6058H38.2925C38.8046 33.6058 39.2167 34.0179 39.2167 34.53C39.2167 35.0422 38.8046 35.4542 38.2925 35.4542H27.1903C25.8579 35.4542 24.7141 34.5069 24.4677 33.2015L22.4806 22.7655C22.4536 22.6192 22.3266 22.5152 22.1764 22.5152H20.4242C19.912 22.5152 19.5 22.1031 19.5 21.591ZM24.4292 38.535C24.4292 38.2922 24.477 38.0519 24.5699 37.8276C24.6628 37.6033 24.7989 37.3996 24.9706 37.2279C25.1422 37.0563 25.346 36.9201 25.5702 36.8272C25.7945 36.7344 26.0349 36.6865 26.2776 36.6865C26.5203 36.6865 26.7607 36.7344 26.985 36.8272C27.2092 36.9201 27.413 37.0563 27.5846 37.2279C27.7563 37.3996 27.8924 37.6033 27.9853 37.8276C28.0782 38.0519 28.126 38.2922 28.126 38.535C28.126 38.7777 28.0782 39.0181 27.9853 39.2423C27.8924 39.4666 27.7563 39.6704 27.5846 39.842C27.413 40.0137 27.2092 40.1498 26.985 40.2427C26.7607 40.3356 26.5203 40.3834 26.2776 40.3834C26.0349 40.3834 25.7945 40.3356 25.5702 40.2427C25.346 40.1498 25.1422 40.0137 24.9706 39.842C24.7989 39.6704 24.6628 39.4666 24.5699 39.2423C24.477 39.0181 24.4292 38.7777 24.4292 38.535ZM37.3682 36.6865C37.8585 36.6865 38.3286 36.8813 38.6753 37.2279C39.0219 37.5746 39.2167 38.0447 39.2167 38.535C39.2167 39.0252 39.0219 39.4954 38.6753 39.842C38.3286 40.1887 37.8585 40.3834 37.3682 40.3834C36.878 40.3834 36.4078 40.1887 36.0612 39.842C35.7145 39.4954 35.5198 39.0252 35.5198 38.535C35.5198 38.0447 35.7145 37.5746 36.0612 37.2279C36.4078 36.8813 36.878 36.6865 37.3682 36.6865Z" fill="white"/>
</svg>
