<svg width="50" height="50" viewBox="0 0 50 50" fill="none" xmlns="http://www.w3.org/2000/svg">
<rect width="50" height="50" rx="10" fill="url(#paint0_linear_4175_1807)"/>
<path d="M16 17.7922C16 17.3532 16.3532 17 16.7922 17H18.294C19.0202 17 19.6639 17.4225 19.9642 18.0562H33.5305C34.3986 18.0562 35.0323 18.8814 34.8046 19.7198L33.4512 24.7469C33.1707 25.7834 32.2299 26.5062 31.1572 26.5062H21.6344L21.8127 27.447C21.8853 27.82 22.2121 28.0906 22.5917 28.0906H32.1078C32.5468 28.0906 32.9 28.4438 32.9 28.8828C32.9 29.3218 32.5468 29.675 32.1078 29.675H22.5917C21.4496 29.675 20.4693 28.863 20.258 27.744L18.5548 18.7989C18.5317 18.6735 18.4228 18.5844 18.294 18.5844H16.7922C16.3532 18.5844 16 18.2312 16 17.7922ZM20.225 32.3156C20.225 32.1076 20.266 31.9015 20.3456 31.7093C20.4252 31.5171 20.5419 31.3424 20.6891 31.1953C20.8362 31.0482 21.0108 30.9315 21.2031 30.8519C21.3953 30.7722 21.6013 30.7312 21.8094 30.7312C22.0174 30.7312 22.2235 30.7722 22.4157 30.8519C22.6079 30.9315 22.7826 31.0482 22.9297 31.1953C23.0768 31.3424 23.1935 31.5171 23.2731 31.7093C23.3528 31.9015 23.3938 32.1076 23.3938 32.3156C23.3938 32.5237 23.3528 32.7297 23.2731 32.9219C23.1935 33.1142 23.0768 33.2888 22.9297 33.4359C22.7826 33.5831 22.6079 33.6998 22.4157 33.7794C22.2235 33.859 22.0174 33.9 21.8094 33.9C21.6013 33.9 21.3953 33.859 21.2031 33.7794C21.0108 33.6998 20.8362 33.5831 20.6891 33.4359C20.5419 33.2888 20.4252 33.1142 20.3456 32.9219C20.266 32.7297 20.225 32.5237 20.225 32.3156ZM31.3156 30.7312C31.7358 30.7312 32.1388 30.8982 32.436 31.1953C32.7331 31.4924 32.9 31.8954 32.9 32.3156C32.9 32.7358 32.7331 33.1388 32.436 33.4359C32.1388 33.7331 31.7358 33.9 31.3156 33.9C30.8954 33.9 30.4924 33.7331 30.1953 33.4359C29.8982 33.1388 29.7313 32.7358 29.7313 32.3156C29.7313 31.8954 29.8982 31.4924 30.1953 31.1953C30.4924 30.8982 30.8954 30.7312 31.3156 30.7312Z" fill="white"/>
<defs>
<linearGradient id="paint0_linear_4175_1807" x1="0" y1="0" x2="55.3314" y2="5.69421" gradientUnits="userSpaceOnUse">
<stop stop-color="#DD3197"/>
<stop offset="1" stop-color="#822FAF"/>
</linearGradient>
</defs>
</svg>
