<svg width="50" height="50" viewBox="0 0 50 50" fill="none" xmlns="http://www.w3.org/2000/svg">
<rect width="50" height="50" rx="10" fill="white"/>
<path d="M16.4287 17.746C16.4287 16.7817 17.2104 16 18.1747 16H31.8255C32.7898 16 33.5716 16.7817 33.5716 17.746H16.4287Z" fill="#E50E78"/>
<path d="M15.4766 20.4453C15.4766 19.4809 16.2583 18.6992 17.2226 18.6992H32.7781C33.7425 18.6992 34.5242 19.4809 34.5242 20.4453H15.4766Z" fill="#E50E78"/>
<path d="M16 23.3975C16 22.8452 16.4477 22.3975 17 22.3975H33C33.5523 22.3975 34 22.8452 34 23.3975V31.6197C34 32.172 33.5523 32.6197 33 32.6197H17C16.4477 32.6197 16 32.172 16 31.6197V23.3975Z" stroke="#E50E78" stroke-width="2"/>
</svg>
