<svg width="50" height="50" viewBox="0 0 50 50" fill="none" xmlns="http://www.w3.org/2000/svg">
<rect width="50" height="50" rx="10" fill="#E50E78"/>
<path d="M20.3942 18.8955C20.0975 18.5986 19.6162 18.5986 19.3195 18.8955C18.218 19.9971 17.6766 21.5316 17.8339 23.1059C17.8732 23.4981 18.2035 23.7904 18.5894 23.7904C18.6147 23.7904 18.6403 23.7891 18.6656 23.7866C19.0834 23.7448 19.3882 23.3721 19.3464 22.9546C19.2344 21.8358 19.6165 20.748 20.3942 19.9702C20.6912 19.6736 20.6912 19.1922 20.3942 18.8955Z" fill="white"/>
<path d="M23.4041 14.2139C18.6126 14.2139 14.7144 18.1121 14.7144 22.9036C14.7144 27.6952 18.6126 31.5934 23.4041 31.5934C28.1957 31.5934 32.0939 27.6952 32.0939 22.9036C32.0939 18.1121 28.1956 14.2139 23.4041 14.2139ZM23.4041 30.0733C19.4507 30.0733 16.2344 26.8571 16.2344 22.9036C16.2344 18.9502 19.4507 15.734 23.4041 15.734C27.3573 15.734 30.5738 18.9502 30.5738 22.9036C30.5738 26.8571 27.3576 30.0733 23.4041 30.0733Z" fill="white"/>
<path d="M35.063 33.4878L29.5401 27.9649C29.2432 27.668 28.7623 27.668 28.4654 27.9649C28.1684 28.2616 28.1684 28.7429 28.4654 29.0396L33.9883 34.5625C34.0588 34.6332 34.1426 34.6893 34.2348 34.7275C34.327 34.7657 34.4259 34.7853 34.5257 34.7852C34.7203 34.7852 34.9146 34.711 35.063 34.5625C35.3599 34.2658 35.3599 33.7845 35.063 33.4878Z" fill="white"/>
</svg>
