<svg width="24" height="24" viewBox="0 0 24 24" fill="none" xmlns="http://www.w3.org/2000/svg">
<path d="M15.4698 3.71003L13.9098 7.45003C13.3112 7.19975 12.6687 7.07086 12.0198 7.07086C11.371 7.07086 10.7285 7.19975 10.1298 7.45003L8.58984 3.67003C9.68204 3.22035 10.8527 2.99231 12.0339 2.99917C13.215 3.00604 14.383 3.24768 15.4698 3.71003Z" fill="#F43434"/>
<path d="M20.2898 15.4698L16.5498 13.9098C16.8001 13.3112 16.929 12.6687 16.929 12.0198C16.929 11.371 16.8001 10.7285 16.5498 10.1298L20.3098 8.58984C20.7627 9.68071 20.9941 10.8507 20.9907 12.0319C20.9872 13.213 20.749 14.3816 20.2898 15.4698Z" fill="#DAE234"/>
<path d="M20.3202 8.5902L16.5702 10.1302C16.3272 9.52791 15.9669 8.97994 15.5102 8.51814C15.0536 8.05633 14.5097 7.68992 13.9102 7.4402L15.4802 3.7002C16.5708 4.15378 17.5603 4.81968 18.3912 5.65918C19.2221 6.49867 19.8778 7.49499 20.3202 8.5902Z" fill="#E08B36"/>
<path d="M15.4101 20.3202L13.8701 16.5702C14.4724 16.3272 15.0204 15.9669 15.4822 15.5102C15.944 15.0536 16.3104 14.5097 16.5601 13.9102L20.3101 15.4802C19.8554 16.5717 19.1879 17.5618 18.3467 18.3928C17.5054 19.2237 16.5072 19.8789 15.4101 20.3202Z" fill="#52EF7A"/>
<path d="M8.53027 20.2898L10.0903 16.5498C10.689 16.8001 11.3314 16.929 11.9803 16.929C12.6292 16.929 13.2716 16.8001 13.8703 16.5498L15.4103 20.3098C14.3194 20.7627 13.1494 20.9941 11.9683 20.9907C10.7871 20.9872 9.61849 20.749 8.53027 20.2898Z" fill="#54DBED"/>
<path d="M3.67969 15.4101L7.42969 13.8701C7.67267 14.4724 8.03296 15.0204 8.48962 15.4822C8.94627 15.944 9.49016 16.3104 10.0897 16.5601L8.51969 20.3001C7.42909 19.8465 6.43955 19.1806 5.60865 18.3411C4.77774 17.5016 4.12204 16.5053 3.67969 15.4101Z" fill="#5286EF"/>
<path d="M3.71003 8.53027L7.45003 10.0903C7.19975 10.689 7.07086 11.3314 7.07086 11.9803C7.07086 12.6292 7.19975 13.2716 7.45003 13.8703L3.67003 15.4103C3.22035 14.3181 2.99231 13.1474 2.99917 11.9663C3.00604 10.7851 3.24768 9.61716 3.71003 8.53027Z" fill="#5058F2"/>
<path d="M8.5902 3.67969L10.1302 7.42969C9.52791 7.67267 8.97994 8.03296 8.51814 8.48962C8.05633 8.94627 7.68992 9.49016 7.4402 10.0897L3.7002 8.51969C4.15378 7.42909 4.81968 6.43955 5.65918 5.60865C6.49867 4.77774 7.49499 4.12204 8.5902 3.67969Z" fill="#EA5653"/>
</svg>
